<svg width="36" height="36" viewBox="0 0 36 36" fill="none" xmlns="http://www.w3.org/2000/svg">
<path d="M3 13.5V9.75C3 6.015 6.015 3 9.75 3H13.5" stroke="white" stroke-width="1.5" stroke-linecap="round" stroke-linejoin="round"/>
<path d="M22.5 3H26.25C29.985 3 33 6.015 33 9.75V13.5" stroke="white" stroke-width="1.5" stroke-linecap="round" stroke-linejoin="round"/>
<path d="M33 24V26.25C33 29.985 29.985 33 26.25 33H24" stroke="white" stroke-width="1.5" stroke-linecap="round" stroke-linejoin="round"/>
<path d="M13.5 33H9.75C6.015 33 3 29.985 3 26.25V22.5" stroke="white" stroke-width="1.5" stroke-linecap="round" stroke-linejoin="round"/>
<path d="M15.75 10.5V13.5C15.75 15 15 15.75 13.5 15.75H10.5C9 15.75 8.25 15 8.25 13.5V10.5C8.25 9 9 8.25 10.5 8.25H13.5C15 8.25 15.75 9 15.75 10.5Z" stroke="white" stroke-width="1.5" stroke-linecap="round" stroke-linejoin="round"/>
<path d="M27.75 10.5V13.5C27.75 15 27 15.75 25.5 15.75H22.5C21 15.75 20.25 15 20.25 13.5V10.5C20.25 9 21 8.25 22.5 8.25H25.5C27 8.25 27.75 9 27.75 10.5Z" stroke="white" stroke-width="1.5" stroke-linecap="round" stroke-linejoin="round"/>
<path d="M15.75 22.5V25.5C15.75 27 15 27.75 13.5 27.75H10.5C9 27.75 8.25 27 8.25 25.5V22.5C8.25 21 9 20.25 10.5 20.25H13.5C15 20.25 15.75 21 15.75 22.5Z" stroke="white" stroke-width="1.5" stroke-linecap="round" stroke-linejoin="round"/>
<path d="M27.75 22.5V25.5C27.75 27 27 27.75 25.5 27.75H22.5C21 27.75 20.25 27 20.25 25.5V22.5C20.25 21 21 20.25 22.5 20.25H25.5C27 20.25 27.75 21 27.75 22.5Z" stroke="white" stroke-width="1.5" stroke-linecap="round" stroke-linejoin="round"/>
</svg>
